<?xml version="1.0" encoding="UTF-8" standalone="no"?>
<svg
   height="72"
   viewBox="0 0 72 72"
   width="72"
   version="1.1"
   id="svg2"
   sodipodi:docname="linkedin-in.svg"
   inkscape:version="1.4 (86a8ad7, 2024-10-11)"
   xmlns:inkscape="http://www.inkscape.org/namespaces/inkscape"
   xmlns:sodipodi="http://sodipodi.sourceforge.net/DTD/sodipodi-0.dtd"
   xmlns="http://www.w3.org/2000/svg"
   xmlns:svg="http://www.w3.org/2000/svg">
  <defs
     id="defs2" />
  <sodipodi:namedview
     id="namedview2"
     pagecolor="#ffffff"
     bordercolor="#000000"
     borderopacity="0.25"
     inkscape:showpageshadow="2"
     inkscape:pageopacity="0.0"
     inkscape:pagecheckerboard="0"
     inkscape:deskcolor="#d1d1d1"
     inkscape:zoom="16.208333"
     inkscape:cx="36.061697"
     inkscape:cy="36.000001"
     inkscape:window-width="3440"
     inkscape:window-height="1369"
     inkscape:window-x="-8"
     inkscape:window-y="-8"
     inkscape:window-maximized="1"
     inkscape:current-layer="g2" />
  <g
     fill="none"
     fill-rule="evenodd"
     id="g2">
    <path
       id="path1"
       style="fill:#000000;fill-opacity:1"
       d="M 8,0 C 3.581722,0 0,3.581722 0,8 v 56 c 0,4.418278 3.581722,8 8,8 h 56 c 4.418278,0 8,-3.581722 8,-8 V 8 C 72,3.581722 68.418278,0 64,0 Z m 8.349609,10 c 2.630469,0 4.886353,1.610313 5.84961,3.90625 0.321085,0.765312 0.498047,1.607072 0.498047,2.490234 0,3.261991 -2.424212,5.950367 -5.556641,6.34375 -0.175013,0.01156 -0.321967,0.02346 -0.605469,0.0293 -0.432083,0.0089 -0.68875,-0.0055 -0.953125,-0.02539 -3.118892,-0.37889 -5.538322,-3.033352 -5.578125,-6.267579 -1.6e-5,-0.0013 1.6e-5,-0.0026 0,-0.0039 -0.0012,-0.158778 0.0088,-0.289896 0.01367,-0.433594 C 10.202553,12.673558 12.962053,10 16.349609,10 Z m 33.105469,16.28125 c 0.101286,-6e-6 0.193902,0.0048 0.294922,0.0059 6.646343,0.139058 11.507049,4.01985 12.167969,11.882813 0.01344,0.242852 0.03176,0.389448 0.04102,0.736328 0.0019,0.03923 0.0022,0.07973 0.0039,0.119141 0.02686,1.099362 0.03002,4.442044 0.03711,7.267578 V 62 H 51.316406 V 43.802734 c 0,-4.98936 -1.896614,-7.777343 -5.845703,-7.777343 -4.296094,0 -6.541016,2.901339 -6.541015,7.777343 V 62 H 28.632812 V 27.333984 h 10.296876 v 4.667969 c 0,0 1.464445,-2.706117 4.769531,-4.398437 1.414063,-0.724051 3.174995,-1.249818 5.292969,-1.310547 0.158194,-0.0028 0.301107,-0.01171 0.46289,-0.01172 z M 11.033203,27.333984 H 21.769531 V 62 H 11.033203 Z"
       sodipodi:nodetypes="sssssssssssscscsccsscccccccssscccccscsccccc" />
  </g>
</svg>
